<?xml version="1.0"?>
<svg xmlns="http://www.w3.org/2000/svg" version="1.1" width="32" height="16" viewBox="0 0 32 16">
<g>
<rect x="0" y="3" width="32" height="10" fill="black" stroke="none"/>
<rect x="0" y="5" width="32" height="6" fill="#995500" stroke="none"/>
<rect x="1" y="5" width="1" height="6" fill="#bb8811" stroke="none"/>
<rect x="3" y="5" width="1" height="6" fill="#bb8811" stroke="none"/>
<rect x="5" y="5" width="1" height="6" fill="#bb8811" stroke="none"/>
<rect x="7" y="5" width="1" height="6" fill="#bb8811" stroke="none"/>
<rect x="9" y="5" width="1" height="6" fill="#bb8811" stroke="none"/>
<rect x="11" y="5" width="1" height="6" fill="#bb8811" stroke="none"/>
<rect x="13" y="5" width="1" height="6" fill="#bb8811" stroke="none"/>
<rect x="15" y="5" width="1" height="6" fill="#bb8811" stroke="none"/>
<rect x="17" y="5" width="1" height="6" fill="#bb8811" stroke="none"/>
<rect x="19" y="5" width="1" height="6" fill="#bb8811" stroke="none"/>
<rect x="21" y="5" width="1" height="6" fill="#bb8811" stroke="none"/>
<rect x="23" y="5" width="1" height="6" fill="#bb8811" stroke="none"/>
<rect x="25" y="5" width="1" height="6" fill="#bb8811" stroke="none"/>
<rect x="27" y="5" width="1" height="6" fill="#bb8811" stroke="none"/>
<rect x="29" y="5" width="1" height="6" fill="#bb8811" stroke="none"/>
<rect x="31" y="5" width="1" height="6" fill="#bb8811" stroke="none"/>
</g>
</svg>