<?xml version="1.0"?>
<svg xmlns="http://www.w3.org/2000/svg" version="1.1" width="16" height="32" viewBox="0 0 16 32">
<g>
<rect x="3" y="0" width="10" height="32" fill="black" stroke="none"/>
<rect x="5" y="0" width="6" height="32" fill="#995500" stroke="none"/>
<rect x="5" y="1" width="6" height="1" fill="#bb8811" stroke="none"/>
<rect x="5" y="3" width="6" height="1" fill="#bb8811" stroke="none"/>
<rect x="5" y="5" width="6" height="1" fill="#bb8811" stroke="none"/>
<rect x="5" y="7" width="6" height="1" fill="#bb8811" stroke="none"/>
<rect x="5" y="9" width="6" height="1" fill="#bb8811" stroke="none"/>
<rect x="5" y="11" width="6" height="1" fill="#bb8811" stroke="none"/>
<rect x="5" y="13" width="6" height="1" fill="#bb8811" stroke="none"/>
<rect x="5" y="15" width="6" height="1" fill="#bb8811" stroke="none"/>
<rect x="5" y="17" width="6" height="1" fill="#bb8811" stroke="none"/>
<rect x="5" y="19" width="6" height="1" fill="#bb8811" stroke="none"/>
<rect x="5" y="21" width="6" height="1" fill="#bb8811" stroke="none"/>
<rect x="5" y="23" width="6" height="1" fill="#bb8811" stroke="none"/>
<rect x="5" y="25" width="6" height="1" fill="#bb8811" stroke="none"/>
<rect x="5" y="27" width="6" height="1" fill="#bb8811" stroke="none"/>
<rect x="5" y="29" width="6" height="1" fill="#bb8811" stroke="none"/>
<rect x="5" y="31" width="6" height="1" fill="#bb8811" stroke="none"/>
</g>
</svg>